<svg width="28" height="28" viewBox="0 0 28 28" fill="none" xmlns="http://www.w3.org/2000/svg">
<path fill-rule="evenodd" clip-rule="evenodd" d="M27.9349 0H0.010498V13.0168L1.07029 10.5205H2.45401L3.27087 12.4464V10.5205H5.23202L5.89395 12.1965L6.59109 10.5205H8.54168H11.5168H13.7526L13.9463 10.524L14.1329 10.5346L14.3054 10.5487L14.4709 10.5698L14.6258 10.598L14.7702 10.6332L14.9075 10.6825L15.0307 10.7423L15.1117 10.7881L15.1821 10.8339L15.2455 10.8831L15.2913 10.9219V10.5205H16.8757V11.031L16.9003 11.0064L16.9848 10.9289L17.0764 10.8585L17.1714 10.7951L17.27 10.7388L17.3721 10.6895L17.4813 10.6472L17.594 10.612L17.7101 10.5839L17.8298 10.5592L17.9531 10.5416L18.0798 10.5311L18.2101 10.524L18.3404 10.5205H19.8051H19.879H21.1888L22.1183 12.707V10.5205H23.7133L24.2626 11.524V10.5205H25.8188V14.5414H24.2626L23.6746 13.5133V14.5414H22.8859H22.1078H21.1043L20.7945 13.8196H20.1783L19.8685 14.5414H18.3017H18.2172H18.1362L18.0587 14.5379L17.9883 14.5343L17.9179 14.5273L17.851 14.5203L17.7876 14.5132L17.7172 14.5026L17.5376 14.4604L17.358 14.397L17.189 14.3125L17.0306 14.2069L16.8862 14.0837L16.8686 14.0625V14.5484H15.9567H15.2842H14.1047L13.985 14.1963L13.9709 14.1365L13.9568 14.0766L13.9463 14.0132L13.9357 13.9463L13.9252 13.8724L13.9146 13.7949L13.904 13.7175L13.897 13.6612L13.8899 13.6154L13.8794 13.5731L13.8723 13.5379L13.8653 13.5098L13.8583 13.4886L13.8512 13.4745L13.8477 13.4675L13.8442 13.464L13.8407 13.4605L13.8371 13.4569L13.8336 13.4534L13.8266 13.4499L13.816 13.4429L13.8019 13.4358L13.7914 13.4288L13.7738 13.4217L13.7421 13.4112L13.7033 13.4006L13.654 13.39L13.5942 13.383L13.5273 13.376L13.4534 13.3724H13.3653H13.1963V14.5555H12.0767H11.5168H8.54168H8.45365H6.85164V13.9639L6.59813 14.5555H5.15103L4.95738 14.0837V14.5555H4.15814H3.27087H2.38007L2.07375 13.8337H1.45407L1.14423 14.5414H0.010498V27.9244H27.9384V19.7735L27.9138 19.7981L27.8081 19.8826L27.6919 19.953L27.5687 20.0094L27.4419 20.0516L27.3187 20.0798L27.2483 20.0903L27.1814 20.1044L27.111 20.1115L27.0406 20.115L26.9666 20.1185L26.8892 20.122H26.8047H26.7166H24.7484V19.858L24.7132 19.8861L24.597 19.9565L24.4738 20.0129L24.3471 20.0551L24.2238 20.0833L24.1534 20.0939L24.09 20.1009L24.0196 20.1079L23.9492 20.1115L23.8753 20.115L23.7943 20.1185H23.7098H23.6218H22.0373H21.6536H19.1115H18.4143H17.3616L17.2524 19.7594L17.2383 19.703L17.2243 19.6432L17.2137 19.5798L17.2031 19.5129L17.1926 19.439L17.182 19.3615L17.175 19.2841L17.1679 19.2277L17.1609 19.1784L17.1538 19.1362L17.1468 19.101L17.1398 19.0728L17.1327 19.0482L17.1257 19.0341L17.1221 19.027L17.1186 19.0235L17.1151 19.0129L17.1116 19.0094L17.1081 19.0059L17.1045 19.0024L17.0975 18.9989L17.0869 18.9918L17.0834 18.9883L17.0729 18.9848L17.0517 18.9777L17.0236 18.9707L16.9848 18.9636L16.9355 18.9566L16.8792 18.9496L16.8158 18.946H16.7419H16.6363V20.1291H15.0342V18.5763L14.9955 18.6186L14.9357 18.6749L14.8758 18.7277L14.8195 18.77L14.7631 18.8087L14.7033 18.8439L14.6434 18.8756L14.58 18.9038L14.5167 18.932L14.4498 18.9566L14.3829 18.9742L14.316 18.9918L14.2456 19.0059L14.1751 19.0165L14.1047 19.0235L14.0308 19.0305L13.9533 19.0341L13.8723 19.0376H13.7914H13.0555V20.1256H10.9535L10.3479 19.3474L9.75639 20.1256H5.70382V16.1047H7.71426H9.83385L10.362 16.83L10.9359 16.1047H13.6012H13.7209L13.8336 16.1082L13.9428 16.1152L14.0449 16.1223L14.1399 16.1328L14.2315 16.1469L14.3195 16.1645L14.4075 16.1856L14.5308 16.2314L14.6469 16.2842L14.7561 16.3511L14.8617 16.4251L14.9568 16.5096L15.0378 16.5941V16.1082H17.0905L17.2665 16.1117L17.4355 16.1223L17.594 16.1364L17.7453 16.1575L17.8897 16.1856L18.027 16.2244L18.1573 16.2737L18.2735 16.3335L18.3474 16.3828L18.4143 16.4321H18.4178V16.1047H21.9775V16.4004L22.062 16.337L22.1782 16.2666L22.2979 16.2138L22.4211 16.1716L22.5479 16.1399L22.6782 16.1187L22.731 16.1152L22.7803 16.1117L22.8295 16.1082H22.8859H22.9422H23.0021H23.0655H23.1323H25.0794V16.3969L25.1534 16.3406L25.2695 16.2701L25.3893 16.2173L25.5125 16.1751L25.6428 16.1434L25.773 16.1223L25.8258 16.1187L25.8716 16.1152L25.9244 16.1117L25.9808 16.1082H26.0371H26.097H26.1603H26.2272H27.9384V0H27.9349ZM22.0373 18.6644H22.1958L22.0796 18.601L21.9775 18.5271L21.9141 18.4707L21.8648 18.4144L21.8155 18.3581L21.7698 18.3017L21.731 18.2454V18.6186H22.0373V18.6644ZM25.2449 18.6397L25.2484 18.6644H25.2871L25.2449 18.6397ZM9.02052 18.4073L9.27403 18.0975L9.02052 17.7841V18.4073ZM19.1748 11.9817H18.4178L18.3333 11.9852L18.2664 11.9922L18.2101 12.0028L18.1679 12.0169L18.1362 12.031L18.1115 12.0451L18.0939 12.0591L18.0834 12.0697L18.0798 12.0732L18.0728 12.0838L18.0622 12.1084L18.0517 12.1507L18.0376 12.2105L18.027 12.288L18.02 12.376L18.0165 12.4781L18.02 12.619L18.0305 12.7387L18.0446 12.8373L18.0622 12.9147L18.0834 12.9711L18.101 13.0063L18.1115 13.0239L18.1221 13.0344L18.1326 13.0415L18.1573 13.052L18.1925 13.0626L18.2383 13.0732L18.2946 13.0802L18.3615 13.0837L18.4425 13.0872H18.7101L19.1748 11.9817Z" fill="white"/>
<path fill-rule="evenodd" clip-rule="evenodd" d="M6.14048 12.7069H6.86578L6.27075 14.0836H5.42573L4.47156 11.7387V14.0836H3.6864V10.9606H4.88703L5.84824 13.397L6.14048 12.7069ZM7.28125 12.7069H8.06642V14.0836H7.28125V12.7069ZM8.88679 12.7069H11.3057V12.7703H9.62618V13.4815H11.612V14.0836H8.88679V12.7069ZM11.957 12.7069H14.6576C14.6224 12.721 14.5872 12.7316 14.5484 12.7422C14.6928 12.7844 14.7984 12.8267 14.8723 12.8759C14.9463 12.9252 15.0132 12.9957 15.0695 13.0907C15.1153 13.1647 15.147 13.2351 15.1646 13.3055C15.1822 13.3759 15.1998 13.478 15.2104 13.6118C15.2315 13.8372 15.2596 13.9921 15.2984 14.0836H14.4252C14.397 14.0097 14.3724 13.8618 14.3442 13.64C14.3231 13.4569 14.2844 13.3161 14.228 13.221C14.1717 13.1224 14.0872 13.0485 13.971 12.9921C13.8302 12.9252 13.6259 12.8936 13.3548 12.8971H12.7281V14.0836H11.9535V12.7069H11.957ZM15.742 12.7069H16.4215V14.0836H15.742V12.7069ZM16.8229 12.7069H17.5799C17.6081 13.0344 17.6961 13.2597 17.8475 13.3794C17.9743 13.4815 18.175 13.5308 18.4461 13.5308H19.02L19.365 12.7069H20.0833L20.041 12.8055H20.953L20.9107 12.7069H21.629L22.2205 14.0836H21.4177L21.1079 13.3618H19.8932L19.5798 14.0836H19.4249H18.777H18.3088C18.0975 14.0836 17.932 14.0731 17.8194 14.0519C17.425 13.978 17.1469 13.7632 16.9814 13.4076C16.8898 13.214 16.837 12.9781 16.8229 12.7069ZM22.5832 12.7069H23.2345V14.0836H22.5832V12.7069ZM23.7521 12.7069H24.4105L24.7309 13.2879V12.7069H25.3823V14.0836H24.5408L23.7521 12.7069ZM25.3823 12.7069H24.7309V10.9641H25.3823V12.7069ZM24.4105 12.7069H23.7521L23.231 11.795V12.7069H22.5796V10.9641H23.4528L24.4105 12.7069ZM21.636 12.7069H20.9178L20.5023 11.714L20.0868 12.7069H19.365L20.1079 10.9641H20.8931L21.636 12.7069ZM17.5799 12.7069H16.8229C16.8194 12.6506 16.8194 12.5908 16.8194 12.5309C16.8194 12.1119 16.9039 11.7704 17.0729 11.5063C17.1926 11.3162 17.3546 11.1789 17.5588 11.0908C17.7595 11.0028 18.0236 10.9606 18.3475 10.9606H19.4319V11.5169H18.4249C18.1186 11.5169 17.8968 11.5979 17.7525 11.7563C17.6363 11.8866 17.5764 12.126 17.5764 12.471C17.5694 12.552 17.5729 12.633 17.5799 12.7069ZM16.4215 12.7069H15.742V10.9641H16.4215V12.7069ZM14.6576 12.7069H11.957V10.9641H13.7386C14.2491 10.9641 14.6083 11.0204 14.8125 11.1296C14.9498 11.2035 15.0554 11.3021 15.1329 11.4253C15.2068 11.5486 15.2456 11.6859 15.2456 11.8302C15.2456 12.1295 15.1575 12.3549 14.9815 12.5168C14.897 12.5943 14.7878 12.6577 14.6576 12.7069ZM11.3021 12.7069H8.88327V10.9641H11.5451V11.5486H9.61914V12.1788H11.2986V12.7069H11.3021ZM8.06642 12.7069H7.28125V11.7387L6.86578 12.7069H6.14048L6.86578 10.9641H8.06642V12.7069ZM22.129 19.6819V19.1256H23.5091C23.731 19.1256 23.8788 19.1044 23.9528 19.0587C24.0619 18.9918 24.1112 18.8932 24.1112 18.7629C24.1112 18.6115 24.0478 18.5024 23.9246 18.432C23.8542 18.3932 23.7415 18.3721 23.5866 18.3721H23.0268C22.6853 18.3721 22.4388 18.3087 22.2874 18.1784C22.1923 18.0975 22.1184 17.9954 22.0656 17.8721C22.0128 17.7489 21.9846 17.6186 21.9846 17.4778C21.9846 17.2595 22.048 17.0588 22.1712 16.8757C22.2909 16.6997 22.4881 16.5976 22.7522 16.5694C22.8437 16.5588 22.9775 16.5553 23.1535 16.5553H24.6534V17.1116H23.3014C23.1007 17.1116 22.9634 17.1222 22.9 17.1398C22.7662 17.175 22.6958 17.2806 22.6958 17.4567C22.6958 17.6045 22.7522 17.7066 22.8683 17.7595C22.9458 17.7947 23.0726 17.8123 23.2486 17.8123H23.7345C23.981 17.8123 24.1676 17.8334 24.2908 17.8792C24.5056 17.9531 24.6534 18.0869 24.7309 18.2735C24.7978 18.4249 24.8295 18.5869 24.8295 18.7594C24.8295 18.9495 24.7872 19.1185 24.7027 19.2699C24.5866 19.4847 24.407 19.6115 24.1711 19.6537C24.0549 19.6748 23.8824 19.6819 23.6535 19.6819H22.129ZM18.8791 16.5623H21.541V17.1468H19.615V17.7771H21.2945V18.3686H19.615V19.0798H21.6008V19.6819H18.8756V16.5623H18.8791ZM6.12991 16.5623H8.59807H9.58393L10.3304 17.5905L11.1402 16.5623H11.8584H12.1155H13.5907C13.9076 16.5623 14.133 16.58 14.2703 16.6222C14.4991 16.6926 14.6787 16.8335 14.809 17.0518C14.9076 17.2102 14.9568 17.3898 14.9568 17.5799C14.9568 17.7383 14.9252 17.8897 14.8618 18.0306C14.7984 18.1714 14.7069 18.2876 14.5907 18.3827C14.4886 18.4636 14.3794 18.52 14.2632 18.5517C14.147 18.5834 13.9886 18.5974 13.7844 18.5974H12.5943V19.6889H12.1119H11.8549H11.1613L10.3268 18.6186L9.51351 19.6889H8.8551H8.5523H6.12991V16.5623ZM8.79173 16.8018V17.1468H6.86578V17.7771H8.54526V18.3686H6.86578V19.0798H8.85158L9.03467 19.0868L9.83744 18.1045L8.79173 16.8018ZM25.2309 19.6819V19.1256H26.6076C26.8294 19.1256 26.9773 19.1044 27.0512 19.0587C27.1568 18.9918 27.2096 18.8932 27.2096 18.7629C27.2096 18.6115 27.1463 18.5024 27.023 18.432C26.9526 18.3932 26.8399 18.3721 26.685 18.3721H26.1252C25.7837 18.3721 25.5372 18.3087 25.3858 18.1784C25.2907 18.0975 25.2168 17.9954 25.164 17.8721C25.1112 17.7489 25.083 17.6186 25.083 17.4778C25.083 17.2595 25.1464 17.0588 25.2696 16.8757C25.3893 16.6997 25.5865 16.5976 25.8506 16.5694C25.9386 16.5588 26.0759 16.5553 26.2519 16.5553H27.7519V17.1116H26.3998C26.1956 17.1116 26.0618 17.1222 25.9949 17.1398C25.8576 17.175 25.7907 17.2806 25.7907 17.4567C25.7907 17.6045 25.847 17.7066 25.9632 17.7595C26.0407 17.7947 26.1674 17.8123 26.3435 17.8123H26.8259C27.0723 17.8123 27.2589 17.8334 27.3822 17.8792C27.5969 17.9531 27.7448 18.0869 27.8223 18.2735C27.8856 18.4249 27.9209 18.5869 27.9209 18.7594C27.9209 18.9495 27.8786 19.1185 27.7941 19.2699C27.6779 19.4847 27.4983 19.6115 27.2624 19.6537C27.1463 19.6748 26.9737 19.6819 26.7449 19.6819H25.2309ZM16.1856 17.939H17.1645C17.3299 17.939 17.4426 17.9179 17.513 17.8686C17.6187 17.7982 17.668 17.6785 17.668 17.506C17.668 17.3158 17.587 17.1926 17.4321 17.1398C17.3757 17.1222 17.2877 17.1116 17.1609 17.1116H16.1821V17.939H16.1856ZM16.1856 18.4953V19.6819H15.4885V16.5588H17.087C17.5447 16.5588 17.8651 16.6152 18.0482 16.7243C18.1714 16.7982 18.2665 16.8968 18.3334 17.0201C18.4003 17.1433 18.4355 17.2771 18.4355 17.425C18.4355 17.7243 18.3545 17.9531 18.1996 18.1115C18.101 18.2101 17.9743 18.2841 17.8088 18.3369C17.9391 18.3791 18.0341 18.4214 18.101 18.4707C18.1679 18.52 18.2243 18.5904 18.2806 18.6855C18.3193 18.7594 18.3475 18.8298 18.3651 18.9002C18.3827 18.9707 18.3968 19.0728 18.4073 19.2066C18.4249 19.4319 18.4531 19.5868 18.4883 19.6784H17.7067C17.682 19.6044 17.6574 19.4565 17.6363 19.2347C17.6151 19.0516 17.5835 18.9108 17.5306 18.8157C17.4813 18.7171 17.4039 18.6432 17.3018 18.5869C17.175 18.52 16.9919 18.4883 16.749 18.4918H16.1856V18.4953ZM11.8549 16.8722L10.8268 18.108L11.8549 19.3685V16.8722ZM12.5943 18.0376H13.6013C13.7809 18.0376 13.9076 18.013 13.9816 17.9602C14.0907 17.8827 14.1435 17.7489 14.1435 17.5552C14.1435 17.344 14.0625 17.2102 13.8971 17.1503C13.8372 17.1292 13.7457 17.1187 13.6189 17.1187H12.5943V18.0376ZM1.72173 11.7105L1.26401 12.8055H2.17593L1.72173 11.7105ZM0 14.0836L1.32739 10.9606H2.11255L3.43993 14.0836H2.64069L2.33085 13.3618H1.11261L0.799248 14.0836H0ZM12.7351 12.3408H13.8266C14.0097 12.3408 14.1365 12.3196 14.2139 12.2704C14.3301 12.1999 14.39 12.0802 14.39 11.9077C14.39 11.7176 14.302 11.5943 14.1294 11.5415C14.0696 11.5239 13.9675 11.5134 13.8302 11.5134H12.7387V12.3408H12.7351Z" fill="white"/>
</svg>
